<svg width="1000" height="1000" viewBox="0 0 1000 1000" fill="none" xmlns="http://www.w3.org/2000/svg">
<rect width="1000" height="1000" rx="245" fill="white"/>
<path d="M596.406 137.123C596.017 137.511 570.383 143.725 539.311 150.911C508.433 158.096 470.37 167.029 454.834 170.525C439.298 174.215 413.664 180.235 397.545 183.925C328.41 199.849 308.213 204.704 307.436 205.481C306.854 206.064 309.767 209.754 313.845 213.832C318.894 218.881 321.03 222.765 320.448 225.678C319.865 229.756 317.146 230.727 292.871 236.553C278.112 240.049 265.489 243.35 265.101 243.933C264.518 244.515 265.101 247.623 266.266 251.118C267.431 254.614 268.402 259.663 268.402 262.576C268.402 267.237 267.431 268.208 261.217 269.761C254.031 271.315 253.837 271.703 253.254 280.442C252.672 289.376 252.478 289.57 245.486 290.735C233.058 292.871 232.475 293.26 236.359 297.532C238.301 299.668 239.466 301.804 239.078 302.193C238.689 302.775 231.31 304.717 222.765 306.659L207.229 310.155V318.894C207.229 327.633 207.229 327.633 213.638 327.05L219.852 326.468V362.201V398.128L214.997 399.293C210.53 400.458 210.142 401.429 210.142 412.11C210.142 423.179 210.336 423.762 214.997 423.762H219.852V549.798V675.834L211.113 676.999L202.374 678.358V689.039C202.374 699.138 202.568 699.526 207.617 699.526H212.667L211.501 726.131C210.725 740.696 210.142 757.592 210.142 763.806V775.07L202.957 775.652L195.577 776.235L194.994 812.55L194.606 848.866L189.168 849.448C184.896 849.837 183.731 851.002 183.342 856.245L182.76 862.654H460.466C706.129 862.654 738.366 862.266 738.366 859.741C738.366 857.216 734.482 856.828 715.062 856.828H691.758V843.234V829.64H602.426C524.358 829.64 513.094 829.252 513.094 826.727C513.094 824.397 510.375 823.814 501.054 823.814C494.257 823.814 472.312 823.426 451.921 823.231L415.023 822.843L414.44 812.55C413.858 802.646 413.858 802.452 419.295 802.452C422.208 802.452 426.675 801.869 429.2 801.287L433.472 800.122V743.998V687.874H452.698H472.118V658.744C472.312 630.779 472.312 629.614 468.428 629.614C464.738 629.614 464.544 628.449 464.544 610.194V590.774H486.683H508.822V631.944C508.822 684.961 508.822 683.99 511.152 683.99C512.511 683.99 513.094 630.002 513.094 525.911C513.094 369.58 513.094 367.832 516.978 366.861C520.279 366.085 520.862 364.143 520.862 355.986C520.862 346.665 520.474 346.082 516.007 346.082C511.735 346.082 511.152 345.305 511.152 338.508C511.152 332.1 511.929 330.74 516.007 329.769C520.474 328.604 520.862 327.633 520.862 317.923C520.862 308.796 520.279 307.242 517.366 307.242C513.482 307.242 402.4 324.137 395.215 325.691C391.331 326.662 390.748 328.021 390.748 336.178C390.748 344.723 391.331 345.888 395.215 346.47C398.516 346.859 399.681 348.412 400.07 354.044C400.652 360.259 400.07 361.23 395.797 362.395C391.525 363.366 390.748 364.725 390.748 371.328C390.748 375.406 390.165 379.29 389.389 379.679C388.418 380.261 380.261 381.232 370.94 382.009L353.85 383.368V367.832C353.85 350.549 354.238 349.966 367.444 349.966C371.328 349.966 377.542 349.383 380.844 348.801L386.864 347.441V332.294C386.864 323.749 387.641 316.952 388.418 316.952C389.389 316.952 440.075 308.601 501.248 298.503C562.421 288.405 613.107 280.054 614.078 280.054C615.243 280.054 616.02 292.677 616.02 310.932V342.004L607.281 342.975C602.426 343.557 594.658 344.723 589.803 345.305L580.87 346.276L581.452 332.1L582.035 317.923L598.154 316.175L614.078 314.427V303.941V293.454L607.864 294.619C601.261 295.59 550.963 301.416 547.856 301.416C546.885 301.416 546.108 306.271 546.108 312.097C546.108 322.584 546.108 322.778 551.934 322.778C557.76 322.778 557.76 322.972 557.76 333.265V343.946L550.575 344.528L543.195 345.111L541.836 363.56C540.865 373.658 540.476 450.562 540.865 534.456L541.253 686.903L555.43 687.486C566.887 687.874 569.412 687.486 569.412 684.961C569.412 682.631 566.887 682.048 557.76 682.048H546.108V528.63C546.108 383.757 546.302 375.212 549.604 375.212C551.351 375.212 565.14 373.853 580.093 372.299C595.046 370.745 609.223 369.386 611.553 369.386H616.02L616.408 524.163L616.991 679.135L622.234 679.523L627.478 679.912L628.06 471.729C628.449 357.151 628.255 262.964 627.672 262.382C627.089 261.605 599.125 265.683 565.528 271.509C531.931 277.141 454.64 290.152 393.661 300.445C332.682 310.543 281.802 319.477 280.637 319.865C278.695 320.448 278.112 367.638 278.112 546.885V772.934L273.84 774.099C271.315 774.681 266.266 775.264 262.382 775.264H255.391L254.031 542.03C253.06 398.904 253.254 308.019 254.225 307.048C255.973 305.3 271.315 302.387 389.777 281.996C431.918 274.616 452.892 271.121 517.561 259.857C532.708 257.138 568.247 250.924 596.6 246.263C624.953 241.408 650.976 236.942 654.472 236.359L660.686 235.194V456.582C660.686 578.345 661.269 678.358 662.24 678.747C663.016 679.329 677.581 679.135 694.671 678.552L725.743 677.193V668.454C725.743 656.608 725.16 654.86 719.723 654.86H715.062V532.514C715.062 411.527 715.062 410.168 711.178 410.168C707.294 410.168 707.294 411.527 707.294 532.514C707.294 653.695 707.294 654.86 703.41 654.86C699.526 654.86 699.526 653.889 699.914 526.3L700.497 397.545L708.848 396.962C714.285 396.574 717.004 395.409 717.004 393.467C717.004 391.331 714.091 390.748 704.381 390.748H691.758V522.61V654.472L685.932 655.248L680.106 656.219V507.268V358.511L702.051 355.209C713.897 353.267 725.743 351.325 728.073 350.743L732.54 349.578L732.928 513.288C733.317 642.043 734.094 676.999 736.036 677.776C737.783 678.358 738.366 645.538 738.366 518.143C738.366 429.976 739.143 357.734 739.92 357.734C740.696 357.734 746.522 362.977 752.931 369.386C759.34 375.795 765.166 381.038 765.942 381.038C766.719 381.038 767.496 374.824 767.496 367.25C767.496 356.375 766.719 352.491 763.612 348.607C760.116 344.14 759.728 340.644 759.728 316.369C759.728 292.289 760.116 289.57 762.641 291.706C764.971 293.648 766.331 293.648 767.884 292.094C769.438 290.541 768.079 288.405 763.418 284.132C759.922 280.831 756.232 278.112 755.261 278.112C754.29 278.112 754.29 291.706 755.067 308.213C756.038 328.41 755.844 338.314 754.485 338.314C753.319 338.314 749.241 334.818 745.357 330.546L738.366 322.778V289.764C738.366 271.509 739.143 256.75 739.92 256.75C740.891 256.75 746.717 260.634 753.125 265.489C765.554 274.811 767.496 275.587 767.496 271.509C767.496 269.956 760.893 264.13 752.931 258.304C738.754 248.205 738.366 247.817 738.366 239.66C738.366 229.95 737.783 229.756 756.815 245.098C773.905 258.886 775.264 259.663 775.264 255.973C775.264 254.42 768.467 247.623 760.311 241.02C743.415 227.426 736.424 221.017 743.609 225.872C745.94 227.426 754.679 234.029 763.224 240.631C777.012 251.312 781.09 253.254 781.09 248.982C781.09 248.205 771.574 240.049 759.728 230.727C748.076 221.6 738.366 212.667 738.366 211.113C738.366 209.559 738.56 208.2 738.949 208.2C739.337 208.2 750.406 216.939 763.612 227.62C779.536 240.437 788.47 246.263 789.635 245.098C791.965 242.768 794.101 244.71 762.253 219.269C744.969 205.287 735.647 199.072 733.123 199.655C730.792 200.238 722.247 194.412 706.323 181.012C680.3 159.067 683.796 160.038 656.219 166.447L641.072 169.942L624.176 153.241C611.748 140.812 605.922 136.346 602.232 136.346C599.513 136.346 596.794 136.734 596.406 137.123ZM602.426 143.725C602.426 144.696 601.067 149.163 599.707 154.018C596.212 164.116 594.658 212.084 597.571 211.89C598.736 211.89 613.495 208.977 630.585 205.481C647.675 201.985 662.434 199.655 663.405 200.626C664.958 201.985 663.405 215.968 661.657 215.968C661.269 215.968 651.947 217.716 640.878 219.852C611.165 225.484 316.952 278.695 280.442 284.909C259.08 288.599 256.944 288.016 256.75 279.86C256.75 276.17 256.167 276.364 295.59 267.237C312.097 263.547 326.079 259.857 326.662 259.469C327.05 258.886 327.245 249.565 327.05 238.689C326.468 220.435 325.885 218.493 321.419 213.638L316.369 208.394L321.03 207.423C460.077 175.186 571.742 148.969 583.006 146.25C599.901 141.978 602.426 141.589 602.426 143.725ZM670.59 173.05C666.9 178.099 663.793 179.264 643.791 183.925C631.168 186.644 619.71 189.362 618.545 189.751C616.991 190.333 616.02 188.78 616.02 186.255C616.02 182.177 618.35 181.206 643.791 174.797C658.938 170.913 672.144 167.806 672.921 167.612C673.892 167.418 672.726 169.942 670.59 173.05ZM702.827 185.284C711.566 192.664 719.14 199.267 719.917 200.432C721.082 202.374 714.479 204.316 691.37 208.977C667.289 213.832 668.648 214.609 669.813 196.936C670.784 185.09 671.95 180.623 676.028 174.797C680.106 168.971 681.66 168.195 683.99 169.942C685.544 171.302 694.088 178.099 702.827 185.284ZM664.182 189.168C663.599 193.246 661.463 194.023 642.237 197.907C615.826 203.151 616.02 203.151 616.02 198.878C616.02 195.771 619.127 194.606 633.11 191.693C642.431 189.751 651.753 187.42 653.889 186.644C661.463 183.731 664.958 184.507 664.182 189.168ZM732.54 209.948C732.54 213.055 729.433 214.22 710.595 217.716C684.961 222.377 679.523 222.765 680.494 219.464C681.077 218.104 691.37 214.609 703.604 211.89C731.181 205.481 732.54 205.287 732.54 209.948ZM668.454 222.959C664.182 228.008 659.715 229.562 637.965 233.252C626.507 235.388 606.698 238.884 594.27 241.02C571.16 245.098 557.177 247.623 492.703 258.692C473.477 261.993 445.512 266.848 430.559 269.567C415.606 272.092 383.368 277.724 358.705 281.996C334.236 286.268 299.28 292.289 281.025 295.59C260.44 299.086 247.428 300.639 246.263 299.474C245.292 298.503 244.71 297.338 245.292 296.949C245.681 296.561 260.051 293.842 277.141 290.929C307.048 285.686 497.946 251.312 521.833 246.846C542.612 242.962 667.483 220.24 669.231 220.046C670.202 220.046 669.813 221.211 668.454 222.959ZM732.54 221.406C732.54 223.153 682.242 232.281 680.689 230.727C678.941 229.174 682.825 228.008 705.352 223.93C728.85 219.658 732.54 219.269 732.54 221.406ZM731.763 246.457C730.986 247.428 689.816 252.866 683.407 252.866C680.494 252.866 679.912 251.507 680.494 245.486L681.077 238.301L706.323 233.252L731.569 228.397L732.152 236.942C732.54 241.602 732.346 245.875 731.763 246.457ZM322.195 238.301C322.778 240.049 322.778 241.797 322.195 242.573C321.419 243.156 310.349 246.263 297.338 249.37C274.034 254.808 270.538 254.614 270.344 248.788C270.344 247.817 312.291 236.553 319.477 235.582C320.253 235.388 321.419 236.747 322.195 238.301ZM322.39 252.283C322.001 254.808 316.369 256.944 299.474 261.022C272.869 267.431 273.84 267.237 274.616 263.353C275.005 261.022 281.219 258.692 296.561 254.808C322.778 248.205 323.166 248.205 322.39 252.283ZM732.54 288.599V324.332L726.714 325.108C723.413 325.691 720.5 325.497 719.917 325.108C719.334 324.526 718.946 315.01 718.946 303.941C718.946 287.434 718.363 283.938 716.033 283.938C713.703 283.938 713.12 287.628 713.12 305.106C713.12 326.468 712.343 328.604 705.158 328.604C704.187 328.604 703.41 316.564 703.41 301.416V274.228H711.178C716.81 274.228 718.946 273.451 718.946 271.315C718.946 268.208 710.401 267.431 702.051 269.567C697.584 270.732 697.584 271.315 697.584 299.474C697.584 327.633 697.584 328.216 693.312 329.381C690.787 329.963 686.903 330.546 684.378 330.546H680.106L680.494 295.007L681.077 259.663L702.439 256.556C714.285 254.614 725.743 253.254 728.268 253.06L732.54 252.866V288.599ZM623.4 305.688L622.817 343.169L622.429 308.601C622.04 286.463 621.069 274.228 619.71 274.228C618.545 274.228 543.972 286.463 453.863 301.416C363.754 316.369 288.599 328.604 286.851 328.604C285.103 328.604 283.938 327.633 284.326 326.274C284.909 324.914 298.503 321.807 318.117 318.506C336.178 315.398 409.391 303.164 481.051 290.929C552.711 278.695 614.078 268.79 617.574 268.596L623.788 268.402L623.4 305.688ZM247.04 308.99C242.962 311.32 218.687 315.593 215.58 314.622C213.055 313.651 238.689 307.825 246.069 307.436C249.176 307.436 249.37 307.63 247.04 308.99ZM248.982 360.647C248.982 394.049 248.399 404.73 246.652 405.119C240.049 407.255 215.968 408.032 215.968 406.284C215.968 405.313 217.522 404.342 219.658 404.342C222.765 404.342 223.348 402.206 224.319 388.223C225.095 379.484 225.678 360.841 225.678 346.859C225.678 325.303 226.066 321.03 228.785 320.059C230.533 319.477 232.669 319.282 233.64 320.059C234.611 320.642 235.388 339.479 235.388 361.812C235.388 402.594 235.388 402.594 239.66 402.012C244.515 401.235 246.846 396.574 242.379 396.574C239.66 396.574 239.272 392.107 239.272 359.676C239.272 328.216 239.66 322.778 242.185 322.778C243.739 322.778 245.098 321.419 245.098 319.865C245.098 318.311 246.069 316.952 247.04 316.952C248.205 316.952 248.982 332.876 248.982 360.647ZM574.655 339.673C574.267 343.752 573.879 340.45 573.879 332.488C573.879 324.526 574.267 321.224 574.655 325.108C575.044 329.187 575.044 335.789 574.655 339.673ZM491.732 341.227C491.732 351.325 490.955 359.676 489.984 359.676C489.013 359.676 473.477 361.812 455.417 364.531C437.55 367.25 421.626 369.386 420.461 369.386C418.519 369.386 417.936 364.531 417.936 351.908C417.936 335.401 418.13 334.43 422.403 333.653C424.733 333.071 440.657 330.546 457.747 328.021C474.837 325.303 489.402 323.166 490.373 322.972C491.149 322.972 491.732 331.129 491.732 341.227ZM732.152 337.731L731.569 345.111L712.149 348.412C684.767 353.073 685.932 353.267 685.932 344.14C685.932 337.731 686.709 336.372 690.399 335.401C697.001 333.847 719.14 331.129 726.326 330.74C732.54 330.546 732.734 330.74 732.152 337.731ZM761.67 362.395V370.163L750.018 358.705C739.725 348.412 738.366 346.276 738.366 339.479V331.711L750.018 343.169C760.311 353.462 761.67 355.598 761.67 362.395ZM616.02 355.598C616.02 362.977 615.826 363.172 607.864 364.143C603.203 364.919 593.493 365.89 585.919 366.473C578.539 367.056 568.635 368.027 564.169 368.609L555.818 369.58V362.006V354.238L566.111 352.879C577.18 351.325 602.232 348.801 610.777 348.218C615.632 348.024 616.02 348.607 616.02 355.598ZM508.045 370.357C509.793 375.212 507.074 378.902 500.859 380.067C492.897 381.426 415.8 390.748 412.693 390.748C410.751 390.748 410.168 415.994 410.168 510.181C410.168 628.255 410.168 629.614 406.284 629.614C402.594 629.614 402.4 630.973 402.4 651.947V674.28H408.42C413.081 674.28 414.246 674.863 413.275 677.387C412.693 679.135 412.11 704.381 412.11 733.705V786.916H405.313H398.516V583.977V381.232L404.925 380.261C408.226 379.679 426.869 377.348 446.095 375.212C465.321 372.882 485.906 370.357 491.732 369.58C497.558 368.609 503.384 367.832 504.549 367.638C505.909 367.638 507.268 368.803 508.045 370.357ZM508.239 387.058C509.016 388.223 509.016 392.69 508.433 397.351L507.074 405.507L469.787 409.003C449.202 410.945 431.918 412.887 431.142 413.469C430.171 413.858 429.588 462.796 429.588 522.027V629.614H422.791H415.994V513.094C415.994 449.008 416.188 396.574 416.577 396.38C418.324 395.797 497.752 385.31 501.83 385.116C504.743 385.116 507.656 385.893 508.239 387.058ZM392.69 581.064V775.264H382.203C376.571 775.264 368.998 774.681 365.696 774.099L359.676 772.739L360.064 581.258L360.647 389.777L372.299 388.612C378.708 388.029 385.893 387.447 388.418 387.252L392.69 386.864V581.064ZM351.908 414.052V431.336L335.013 431.918L317.923 432.501L317.34 514.453L316.952 596.6H324.72H332.488V518.143C332.488 431.336 331.517 437.356 345.305 437.356H351.908V599.707C351.908 746.911 351.714 762.058 348.801 760.893C347.053 760.311 344.917 759.728 343.946 759.728C342.975 759.728 342.198 758.563 342.198 757.203C342.198 755.844 338.702 752.543 334.624 750.018L326.856 745.163L328.021 733.511C328.798 725.549 330.546 719.917 333.653 715.645C339.285 708.265 339.285 707.294 334.624 707.294C331.323 707.294 331.129 706.711 333.459 699.914C337.926 686.32 338.508 682.048 335.789 682.048C334.042 682.048 331.711 671.755 327.827 645.538C324.914 625.536 322.001 607.087 321.419 604.562C320.253 600.096 320.059 600.096 318.894 603.591C318.117 605.533 315.01 624.176 312.097 644.567C308.213 670.979 305.688 682.048 303.941 682.048C301.222 682.048 302.193 690.593 306.465 700.885C308.796 706.906 308.796 707.294 305.106 707.294C300.445 707.294 300.445 708.071 305.883 715.645C308.213 719.14 310.349 722.636 310.349 723.801C313.262 746.522 313.651 744.775 305.3 750.018C301.028 752.543 297.532 755.844 297.532 757.203C297.532 758.563 296.755 759.728 295.784 759.728C294.813 759.728 293.454 724.578 292.677 681.465C290.929 580.287 292.094 441.046 294.619 441.628C295.784 442.017 296.173 477.75 295.784 538.728C295.202 626.313 295.59 635.44 298.309 635.44C301.028 635.44 301.416 625.924 301.416 537.369C301.416 473.283 301.999 439.298 303.358 439.298C304.523 439.298 305.3 431.142 305.3 418.907V398.71L321.419 397.933C330.158 397.739 340.644 397.157 344.723 396.962L351.908 396.574V414.052ZM508.239 413.858C509.21 417.353 507.851 522.998 506.685 524.163C506.297 524.358 491.926 525.134 474.642 525.911L443.182 527.271V471.924V416.577L472.895 413.664C489.013 412.11 503.384 410.556 504.743 410.362C505.909 410.362 507.462 411.916 508.239 413.858ZM248.594 546.496L248.011 681.077L236.359 681.66L224.707 682.242V550.575V419.101L219.852 417.742L214.997 416.577L219.852 415.411C224.707 414.052 234.029 412.887 243.739 412.498L248.982 412.11L248.594 546.496ZM285.297 685.349C285.103 730.986 284.909 694.088 284.909 603.397C284.909 512.511 285.103 475.225 285.297 520.279C285.686 565.334 285.686 639.518 285.297 685.349ZM508.239 534.65C509.016 536.981 508.822 539.505 507.851 540.282C507.074 541.059 490.373 542.418 470.953 543.195L435.414 544.554V538.534V532.708L455.417 531.931C509.21 530.378 506.88 530.184 508.239 534.65ZM508.239 550.963C508.239 555.818 500.665 557.177 463.573 557.954C436.773 558.537 436.385 558.537 435.802 554.264C435.22 550.575 435.997 549.992 442.599 549.798C446.678 549.604 461.825 548.827 476.196 548.05C508.822 546.302 508.239 546.302 508.239 550.963ZM508.239 565.916C508.627 568.441 509.016 573.49 508.627 577.18L508.239 583.977L483.576 584.56L458.718 585.142V607.281V629.614H447.066H435.414V596.6V563.78L459.301 563.003C472.312 562.809 488.431 562.227 495.033 562.032C506.297 561.644 507.268 562.032 508.239 565.916ZM417.936 652.918C417.936 667.095 417.548 668.454 414.052 668.454C410.556 668.454 410.168 667.095 410.168 652.918C410.168 638.741 410.556 637.382 414.052 637.382C417.548 637.382 417.936 638.741 417.936 652.918ZM427.646 653.112C427.646 664.764 427.063 668.648 425.316 668.066C423.568 667.483 422.597 662.045 422.208 652.335C421.82 639.907 422.208 637.382 424.733 637.382C427.063 637.382 427.646 640.295 427.646 653.112ZM439.298 652.918C439.298 665.347 438.715 668.454 436.385 668.454C434.055 668.454 433.472 665.347 433.472 652.918C433.472 640.489 434.055 637.382 436.385 637.382C438.715 637.382 439.298 640.489 439.298 652.918ZM450.95 652.918C450.95 665.347 450.367 668.454 448.037 668.454C445.707 668.454 445.124 665.347 445.124 652.918C445.124 640.489 445.707 637.382 448.037 637.382C450.367 637.382 450.95 640.489 450.95 652.918ZM466.098 652.335C465.515 666.318 465.127 667.483 461.243 668.066C456.97 668.648 456.776 668.26 456.776 653.112C456.776 637.576 456.776 637.382 461.631 637.382C466.68 637.382 466.68 637.382 466.098 652.335ZM720.5 666.9L719.917 673.309H703.41H686.903L686.32 666.9L685.738 660.686H703.41H721.082L720.5 666.9ZM679.523 674.668C678.941 676.028 678.552 675.057 678.552 672.338C678.552 669.619 678.941 668.648 679.523 669.813C679.912 671.173 679.912 673.503 679.523 674.668ZM219.464 683.407C217.522 683.796 214.026 683.796 211.696 683.407C209.171 683.019 210.725 682.631 214.997 682.631C219.269 682.436 221.211 682.825 219.464 683.407ZM248.982 689.622C248.982 692.341 241.214 693.7 223.93 693.7C203.539 693.7 205.093 691.175 226.261 689.622C235 689.039 243.739 688.457 245.681 688.262C247.428 688.068 248.982 688.651 248.982 689.622ZM248.011 720.111C248.011 723.413 246.263 723.801 231.892 724.384C217.133 724.966 215.774 724.578 216.356 721.471C216.939 718.558 219.464 717.781 230.533 716.81C247.623 715.45 248.011 715.645 248.011 720.111ZM248.982 737.395C248.982 739.531 246.263 740.308 237.33 740.696C230.921 740.891 223.736 741.085 221.406 741.085C218.687 741.279 216.745 739.92 216.356 737.783C215.774 734.87 217.522 734.482 232.281 734.482C245.875 734.482 248.982 735.065 248.982 737.395ZM248.982 756.621C248.982 758.369 244.71 759.534 233.058 760.311C224.124 760.893 216.551 761.087 216.162 760.699C215.774 760.311 215.968 758.563 216.551 756.815C218.298 752.737 248.982 752.543 248.982 756.621ZM248.982 772.351C248.982 774.681 245.875 775.264 232.475 775.264C215.385 775.264 209.559 772.157 224.319 770.797C244.127 769.05 248.982 769.438 248.982 772.351ZM235.388 790.8V798.568H218.881H202.374V790.8V783.032H218.881H235.388V790.8ZM326.662 790.8V798.568H283.938H241.214V790.8V783.032H283.938H326.662V790.8ZM369.386 790.8V798.568H350.937H332.488V790.8V783.032H350.937H369.386V790.8ZM391.136 788.275C391.719 793.13 392.496 793.713 400.07 794.296L408.226 794.878V806.53C408.226 817.988 408.226 817.988 402.594 817.988C397.739 817.988 396.768 818.765 396.186 823.231C395.797 827.504 394.438 828.863 390.165 829.252C385.893 829.834 384.534 831.194 383.563 835.66C382.98 838.767 381.232 841.292 379.873 841.292C377.737 841.292 377.154 835.66 377.154 812.162V783.032H383.757C389.583 783.032 390.554 783.615 391.136 788.275ZM266.072 816.434L265.489 828.669L234.029 829.252L202.374 829.64V817.017V804.394H234.417H266.654L266.072 816.434ZM369.386 817.017V829.64L320.448 829.252L271.315 828.669L270.732 816.434L270.15 804.394H319.865H369.386V817.017ZM509.21 827.504C509.21 835.466 509.016 835.466 454.64 835.466H402.4V830.611V825.756H455.805C486.877 825.756 509.21 826.533 509.21 827.504ZM678.747 834.689L685.932 836.049V846.341V856.828H627.672H569.412V846.147V835.66L595.241 834.883C650.976 833.718 671.755 833.524 678.747 834.689ZM221.794 841.68C221.794 854.692 220.24 856.828 210.919 856.828H202.374V846.147V835.466H212.084C221.794 835.466 221.794 835.466 221.794 841.68ZM316.952 846.147V856.828H271.315H225.678V846.147V835.466H271.315H316.952V846.147ZM369.386 846.147V856.828H346.082H322.778V846.147V835.466H346.082H369.386V846.147ZM563.586 846.147V857.022L538.923 856.44L514.065 855.857L513.482 845.564L512.9 835.466H538.146H563.586V846.147ZM507.268 841.292C507.268 844.982 505.909 845.176 462.602 845.564C384.339 846.341 391.719 846.73 391.136 841.68L390.554 837.408H448.814C505.909 837.408 507.268 837.408 507.268 841.292ZM507.268 851.973V856.828H442.211C378.513 856.828 377.154 856.828 377.154 852.944C377.154 849.254 378.708 849.06 435.997 848.672C468.234 848.283 497.558 847.895 501.054 847.506C506.491 847.118 507.268 847.701 507.268 851.973Z" fill="black"/>
<path d="M574.267 156.737C565.528 158.873 513.677 170.914 382.009 201.597C337.926 211.696 330.158 214.22 333.071 217.133C334.236 218.298 351.52 214.414 469.399 186.838C541.836 169.943 586.502 159.65 587.861 159.65C588.444 159.65 588.832 158.291 588.832 156.737C588.832 153.436 587.473 153.436 574.267 156.737Z" fill="black"/>
<path d="M520.862 181.983C492.509 188.586 442.405 200.432 409.391 208.006C376.183 215.774 348.412 222.377 347.636 222.959C346.859 223.542 346.082 232.281 346.082 242.379C346.082 257.333 346.665 260.634 348.995 260.634C351.325 260.634 351.908 257.721 351.908 246.069C351.908 238.107 352.296 231.504 352.879 231.504C353.462 231.504 385.505 224.124 424.345 214.997C513.871 193.829 521.445 192.081 546.496 186.061C557.954 183.342 568.247 181.012 569.412 181.012C570.577 181.012 571.354 188.003 571.354 198.49C571.354 208.783 572.131 215.968 573.296 215.968C574.461 215.968 575.238 206.841 575.238 192.664C575.238 179.847 574.655 169.36 573.879 169.554C572.908 169.748 549.215 175.186 520.862 181.983Z" fill="black"/>
<path d="M456.776 212.278C403.953 224.901 360.453 235.388 360.258 235.388C358.899 235.388 359.87 254.225 361.424 256.362C362.589 258.498 378.902 255.779 443.376 243.156C487.654 234.611 530.378 226.261 538.34 224.513C564.363 219.464 561.644 221.794 561.644 204.316C561.644 189.363 561.45 188.78 557.371 188.974C554.847 189.168 509.598 199.655 456.776 212.278ZM555.818 205.093V215.385L465.126 233.446C415.023 243.156 372.299 251.701 369.968 252.283C365.89 253.254 365.502 252.478 365.502 246.457V239.66L391.33 233.64C405.313 230.145 422.208 226.261 428.617 224.707C435.025 223.153 451.727 219.269 465.515 215.968C479.497 212.667 503.966 206.841 519.891 203.151C536.009 199.267 549.992 195.965 550.963 195.577C555.429 194.023 555.818 194.994 555.818 205.093Z" fill="black"/>
<path d="M466.874 223.153C467.263 227.037 468.622 228.591 471.341 228.591C474.06 228.591 475.419 227.037 475.807 223.153C476.39 218.687 475.807 217.91 471.341 217.91C466.874 217.91 466.292 218.687 466.874 223.153ZM472.7 226.066C470.952 227.814 470.37 227.426 470.37 223.736C470.37 220.046 470.952 219.658 472.7 221.406C474.448 223.153 474.448 224.319 472.7 226.066Z" fill="black"/>
<path d="M454.834 221.988C454.834 222.959 455.611 223.348 456.776 222.765C457.941 222.182 458.135 222.959 457.553 224.513C456.776 226.455 457.359 227.62 458.912 227.814C460.466 227.814 459.883 228.591 457.747 229.562C454.057 231.116 454.057 231.31 458.135 231.31C463.379 231.504 464.738 229.562 463.185 224.124C462.214 219.852 454.834 217.91 454.834 221.988Z" fill="black"/>
<path d="M443.182 224.707C441.046 227.426 441.24 228.008 444.93 228.979C448.231 229.756 448.619 230.533 446.677 231.698C445.318 232.669 445.124 233.446 446.095 233.446C449.979 233.446 453.28 229.95 452.503 226.455C451.727 221.794 446.483 220.823 443.182 224.707Z" fill="black"/>
<path d="M432.889 228.008C434.055 229.368 435.414 231.892 435.997 233.446C436.579 235.194 437.162 234.029 437.162 230.921C437.356 227.232 436.385 225.678 434.249 225.678C431.918 225.678 431.53 226.455 432.889 228.008Z" fill="black"/>
<path d="M404.342 696.225C404.342 705.158 403.759 728.462 402.983 747.688C401.817 779.731 402.012 783.032 404.925 783.032C407.838 783.032 408.226 778.177 408.226 731.569C408.226 698.555 407.449 680.106 406.284 680.106C405.119 680.106 404.342 686.709 404.342 696.225Z" fill="black"/>
<path d="M459.689 394.826C441.628 396.768 424.733 398.322 422.403 398.322L417.936 398.516V512.123C417.936 624.371 417.936 625.73 421.82 625.73C425.704 625.73 425.704 624.176 426.092 515.424L426.675 405.313L439.298 403.759C446.289 402.983 463.767 401.235 478.138 399.875C500.277 397.933 504.355 396.962 504.938 394.049C505.714 389.971 504.161 389.971 459.689 394.826Z" fill="black"/>
<path d="M325.303 399.875L307.242 400.652V498.529C307.242 584.365 307.63 596.6 310.155 596.6C312.68 596.6 313.068 584.754 313.068 501.442V406.284H330.546C346.665 406.284 348.024 406.09 348.024 402.4C348.024 400.264 346.859 398.71 345.694 398.904C344.334 399.099 335.013 399.681 325.303 399.875Z" fill="black"/>
<path d="M316.952 423.956C316.952 428.034 317.535 428.229 332.682 427.063C341.421 426.287 348.995 425.316 349.383 424.927C352.491 421.82 345.888 419.878 332.294 419.878C317.923 419.878 316.952 420.072 316.952 423.956Z" fill="black"/>
<path d="M233.446 538.146C233.446 605.145 234.029 664.182 234.611 669.231C235.776 676.999 236.553 678.164 240.437 678.164C243.35 678.164 245.098 676.999 245.098 675.251C245.098 673.697 243.933 672.338 242.379 672.338C238.495 672.338 236.747 423.568 240.631 421.237C244.71 418.713 243.544 415.994 238.301 415.994H233.446V538.146Z" fill="black"/>
<path d="M444.736 566.887L437.356 567.664V596.794C437.356 621.263 437.744 625.73 440.269 625.73C442.794 625.73 443.182 621.458 443.182 598.542V571.548L472.7 570.966C494.062 570.577 502.219 569.8 502.996 567.858C503.578 566.111 497.752 565.528 477.75 565.916C463.573 566.111 448.62 566.499 444.736 566.887Z" fill="black"/>
<path d="M460.272 574.655L445.124 575.432V600.484C445.124 621.652 445.512 625.73 448.037 625.73C450.367 625.73 450.95 622.04 450.95 603.591V581.647L459.883 580.287C464.932 579.705 477.167 579.122 487.071 579.122C502.025 579.122 505.326 578.539 505.326 576.209C505.326 573.102 499.694 572.908 460.272 574.655Z" fill="black"/>
<path d="M549.992 530.572V680.3L563.198 679.718L576.209 679.135V673.309C576.209 667.677 575.821 667.483 567.082 666.9L557.954 666.318L557.76 529.989C557.76 455.028 557.76 390.748 557.76 387.252C557.76 382.397 556.983 381.038 553.876 381.038C549.992 381.038 549.992 382.397 549.992 530.572Z" fill="black"/>
<path d="M583.589 397.933L571.354 398.71V529.601C571.354 613.495 572.131 660.686 573.296 660.686C574.461 660.686 575.432 648.063 575.626 629.031C576.209 598.154 576.209 597.571 580.676 596.988L584.948 596.406V499.306V402.4H596.794H608.64L607.864 540.67C607.281 671.173 607.475 679.135 610.777 679.718C613.884 680.3 614.078 672.532 614.078 538.534V396.574L604.951 396.962C599.707 397.157 590.191 397.545 583.589 397.933Z" fill="black"/>
<path d="M755.844 446.678C755.844 476.779 756.621 493.674 757.786 493.674C758.951 493.674 759.728 478.721 759.728 452.892C759.728 430.365 760.505 412.11 761.282 412.11C762.058 412.11 763.806 413.081 764.971 414.246C766.137 415.411 767.496 415.606 768.079 414.44C768.855 413.469 766.331 409.78 762.641 406.284L755.844 399.681V446.678Z" fill="black"/>
<path d="M748.658 596.988C749.047 658.938 749.629 676.999 751.571 677.581C753.319 678.358 753.902 662.628 753.902 603.203V528.047L758.563 532.32C761.864 535.427 763.612 536.01 764.583 534.456C765.942 532.32 752.931 516.978 749.824 516.978C749.047 516.978 748.464 552.905 748.658 596.988Z" fill="black"/>
<path d="M480.08 658.55C480.08 686.709 479.497 685.738 496.587 685.155L504.355 684.961L504.938 659.132L505.52 633.498H492.703H480.08V658.55Z" fill="black"/>
<path d="M449.008 706.129C449.008 706.517 456.388 722.053 465.515 740.502C474.642 759.145 482.022 775.652 482.022 777.4C482.022 782.061 476.002 786.528 468.428 787.304C461.825 787.887 461.631 788.081 461.048 796.82C460.466 805.365 460.66 805.948 466.098 806.919C479.303 809.637 495.033 800.122 503.967 784.197C509.016 775.07 534.456 711.372 534.456 707.488C534.456 705.935 531.155 705.352 523.387 705.74C510.569 706.323 512.317 703.798 502.219 737.395C499.694 745.94 496.975 754.29 496.393 755.844C495.616 757.592 493.674 754.29 490.955 747.105C488.431 740.696 483.576 728.656 480.08 720.305L473.866 705.352H461.437C454.64 705.352 449.008 705.74 449.008 706.129Z" fill="black"/>
<path d="M545.137 707.877C544.554 709.236 544.36 731.763 544.554 757.786L545.137 805.365H555.818H566.499L567.081 764.971L567.47 724.772H585.919H604.368V715.062V705.352H575.238C553.293 705.352 545.719 705.935 545.137 707.877Z" fill="black"/>
<path d="M619.71 705.74C619.127 709.236 614.272 788.47 614.078 796.238V806.53L624.37 805.948L634.469 805.365L635.634 780.119C636.411 766.137 637.188 749.63 637.382 743.221C637.576 736.812 637.964 732.346 638.353 733.511C638.741 734.482 642.625 749.047 646.898 765.554C657.579 805.559 656.996 804.394 666.512 804.394C675.833 804.394 674.474 806.919 687.485 764C697.972 730.21 698.943 730.404 699.332 765.748C699.526 778.177 700.108 792.354 700.691 797.403L702.05 806.336H712.731H723.412L722.053 786.722C721.47 775.847 720.305 755.067 719.723 740.502C718.169 702.439 719.723 705.352 702.439 705.352H688.068L681.271 727.102C677.581 739.143 673.503 753.319 672.144 758.757C668.842 772.934 667.483 772.934 664.57 759.34C663.016 752.543 659.132 737.978 655.831 726.714L649.811 706.323L634.857 705.74C626.701 705.352 619.904 705.352 619.71 705.74Z" fill="black"/>
<path d="M730.598 707.294C730.598 708.459 737.978 724.189 747.105 742.25C756.232 760.311 763.612 776.429 763.612 777.789C763.612 782.449 756.815 786.916 749.629 786.916C742.833 786.916 742.638 787.11 741.862 795.072C741.279 799.733 741.279 804.006 741.667 804.782C743.027 807.501 761.67 806.53 767.302 803.423C773.904 800.122 781.867 790.994 786.916 780.896C791.188 772.934 816.046 709.236 816.046 706.906C816.046 706.129 810.802 705.352 804.588 705.352H793.13L786.916 725.16C777.594 755.65 776.817 758.174 776.235 757.398C776.041 757.009 771.574 746.328 766.525 733.511C761.476 720.694 756.426 709.042 755.261 707.682C753.125 704.769 730.598 704.381 730.598 707.294Z" fill="black"/>
</svg>
